<mxfile host="app.diagrams.net" agent="Mozilla/5.0 (Windows NT 10.0; Win64; x64) AppleWebKit/537.36 (KHTML, like Gecko) Chrome/135.0.0.0 Safari/537.36" version="26.2.13">
  <diagram name="Page-1" id="e7e014a7-5840-1c2e-5031-d8a46d1fe8dd">
    <mxGraphModel dx="1271" dy="516" grid="1" gridSize="10" guides="1" tooltips="1" connect="1" arrows="1" fold="1" page="1" pageScale="1" pageWidth="1169" pageHeight="826" background="none" math="0" shadow="0">
      <root>
        <mxCell id="0" />
        <mxCell id="1" parent="0" />
        <mxCell id="2" value="Status Order" style="swimlane;whiteSpace=wrap" parent="1" vertex="1">
          <mxGeometry x="260" y="128" width="785.5" height="570" as="geometry" />
        </mxCell>
        <mxCell id="5" value="" style="ellipse;shape=startState;fillColor=#000000;strokeColor=#ff0000;" parent="2" vertex="1">
          <mxGeometry x="27.5" y="65" width="50" height="50" as="geometry" />
        </mxCell>
        <mxCell id="NHyj-sqvV58rn04amOKj-41" value="PENDING" style="rounded=1;whiteSpace=wrap;html=1;" vertex="1" parent="2">
          <mxGeometry x="115.5" y="70" width="114.5" height="40" as="geometry" />
        </mxCell>
        <mxCell id="NHyj-sqvV58rn04amOKj-42" value="" style="endArrow=classic;html=1;rounded=0;exitX=1;exitY=0.5;exitDx=0;exitDy=0;entryX=0;entryY=0.5;entryDx=0;entryDy=0;" edge="1" parent="2" source="5" target="NHyj-sqvV58rn04amOKj-41">
          <mxGeometry width="50" height="50" relative="1" as="geometry">
            <mxPoint x="175.5" y="262" as="sourcePoint" />
            <mxPoint x="225.5" y="212" as="targetPoint" />
          </mxGeometry>
        </mxCell>
        <mxCell id="NHyj-sqvV58rn04amOKj-43" value="&amp;nbsp;PROCESSING" style="rounded=1;whiteSpace=wrap;html=1;" vertex="1" parent="2">
          <mxGeometry x="365.5" y="70" width="110" height="40" as="geometry" />
        </mxCell>
        <mxCell id="NHyj-sqvV58rn04amOKj-44" value="" style="endArrow=classic;html=1;rounded=0;exitX=1;exitY=0.5;exitDx=0;exitDy=0;entryX=0;entryY=0.5;entryDx=0;entryDy=0;" edge="1" parent="2" source="NHyj-sqvV58rn04amOKj-41" target="NHyj-sqvV58rn04amOKj-43">
          <mxGeometry width="50" height="50" relative="1" as="geometry">
            <mxPoint x="335.5" y="262" as="sourcePoint" />
            <mxPoint x="385.5" y="212" as="targetPoint" />
          </mxGeometry>
        </mxCell>
        <mxCell id="NHyj-sqvV58rn04amOKj-45" value="admin xác nhận&lt;div&gt;&amp;nbsp;/ gửi email xác nhận&lt;/div&gt;" style="edgeLabel;html=1;align=center;verticalAlign=middle;resizable=0;points=[];" vertex="1" connectable="0" parent="NHyj-sqvV58rn04amOKj-44">
          <mxGeometry x="-0.1186" y="-2" relative="1" as="geometry">
            <mxPoint as="offset" />
          </mxGeometry>
        </mxCell>
        <mxCell id="NHyj-sqvV58rn04amOKj-46" value="SHIPPED" style="rounded=1;whiteSpace=wrap;html=1;" vertex="1" parent="2">
          <mxGeometry x="605.5" y="75" width="100" height="40" as="geometry" />
        </mxCell>
        <mxCell id="NHyj-sqvV58rn04amOKj-47" value="" style="endArrow=classic;html=1;rounded=0;exitX=1;exitY=0.5;exitDx=0;exitDy=0;" edge="1" parent="2" source="NHyj-sqvV58rn04amOKj-43">
          <mxGeometry width="50" height="50" relative="1" as="geometry">
            <mxPoint x="335.5" y="262" as="sourcePoint" />
            <mxPoint x="605.5" y="95" as="targetPoint" />
          </mxGeometry>
        </mxCell>
        <mxCell id="NHyj-sqvV58rn04amOKj-48" value="admin cập nhật đã gửi&lt;div&gt;&amp;nbsp;/ lưu mã vận đơn,&amp;nbsp;&lt;/div&gt;&lt;div&gt;gửi email thông báo&lt;/div&gt;" style="edgeLabel;html=1;align=center;verticalAlign=middle;resizable=0;points=[];" vertex="1" connectable="0" parent="NHyj-sqvV58rn04amOKj-47">
          <mxGeometry x="-0.0377" y="-1" relative="1" as="geometry">
            <mxPoint as="offset" />
          </mxGeometry>
        </mxCell>
        <mxCell id="NHyj-sqvV58rn04amOKj-49" value="DELIVERED" style="rounded=1;whiteSpace=wrap;html=1;" vertex="1" parent="2">
          <mxGeometry x="595.5" y="229" width="120" height="40" as="geometry" />
        </mxCell>
        <mxCell id="NHyj-sqvV58rn04amOKj-50" value="" style="endArrow=classic;html=1;rounded=0;exitX=0.5;exitY=1;exitDx=0;exitDy=0;entryX=0.5;entryY=0;entryDx=0;entryDy=0;" edge="1" parent="2" source="NHyj-sqvV58rn04amOKj-46" target="NHyj-sqvV58rn04amOKj-49">
          <mxGeometry width="50" height="50" relative="1" as="geometry">
            <mxPoint x="360" y="312" as="sourcePoint" />
            <mxPoint x="410" y="262" as="targetPoint" />
          </mxGeometry>
        </mxCell>
        <mxCell id="NHyj-sqvV58rn04amOKj-51" value="xác nhận giao hàng&amp;nbsp;&lt;div&gt;/ ghi nhận thời gian giao hàng&lt;/div&gt;" style="edgeLabel;html=1;align=center;verticalAlign=middle;resizable=0;points=[];" vertex="1" connectable="0" parent="NHyj-sqvV58rn04amOKj-50">
          <mxGeometry x="0.0465" relative="1" as="geometry">
            <mxPoint as="offset" />
          </mxGeometry>
        </mxCell>
        <mxCell id="NHyj-sqvV58rn04amOKj-52" value="CANCELLED" style="rounded=1;whiteSpace=wrap;html=1;" vertex="1" parent="2">
          <mxGeometry x="230" y="230" width="120" height="40" as="geometry" />
        </mxCell>
        <mxCell id="NHyj-sqvV58rn04amOKj-53" value="" style="endArrow=classic;html=1;rounded=0;exitX=0.5;exitY=1;exitDx=0;exitDy=0;entryX=0;entryY=0;entryDx=0;entryDy=0;" edge="1" parent="2" source="NHyj-sqvV58rn04amOKj-41" target="NHyj-sqvV58rn04amOKj-52">
          <mxGeometry width="50" height="50" relative="1" as="geometry">
            <mxPoint x="310" y="302" as="sourcePoint" />
            <mxPoint x="360" y="252" as="targetPoint" />
          </mxGeometry>
        </mxCell>
        <mxCell id="NHyj-sqvV58rn04amOKj-54" value="khách hàng hủy&amp;nbsp;&lt;div&gt;/ khôi phục số lượng sản phẩm&lt;/div&gt;" style="edgeLabel;html=1;align=center;verticalAlign=middle;resizable=0;points=[];" vertex="1" connectable="0" parent="NHyj-sqvV58rn04amOKj-53">
          <mxGeometry x="-0.0897" relative="1" as="geometry">
            <mxPoint y="1" as="offset" />
          </mxGeometry>
        </mxCell>
        <mxCell id="NHyj-sqvV58rn04amOKj-55" value="" style="endArrow=classic;html=1;rounded=0;exitX=0.5;exitY=1;exitDx=0;exitDy=0;entryX=1;entryY=0;entryDx=0;entryDy=0;" edge="1" parent="2" source="NHyj-sqvV58rn04amOKj-43" target="NHyj-sqvV58rn04amOKj-52">
          <mxGeometry width="50" height="50" relative="1" as="geometry">
            <mxPoint x="310" y="302" as="sourcePoint" />
            <mxPoint x="360" y="252" as="targetPoint" />
          </mxGeometry>
        </mxCell>
        <mxCell id="NHyj-sqvV58rn04amOKj-56" value="admin hoặc khách hàng hủy&amp;nbsp;&lt;div&gt;/ khôi phục số lượng sản phẩm&lt;/div&gt;" style="edgeLabel;html=1;align=center;verticalAlign=middle;resizable=0;points=[];" vertex="1" connectable="0" parent="NHyj-sqvV58rn04amOKj-55">
          <mxGeometry x="-0.0403" relative="1" as="geometry">
            <mxPoint as="offset" />
          </mxGeometry>
        </mxCell>
        <mxCell id="NHyj-sqvV58rn04amOKj-57" value="REFUNDED" style="rounded=1;whiteSpace=wrap;html=1;" vertex="1" parent="2">
          <mxGeometry x="230" y="352" width="120" height="42" as="geometry" />
        </mxCell>
        <mxCell id="NHyj-sqvV58rn04amOKj-58" value="" style="endArrow=classic;html=1;rounded=0;exitX=0.5;exitY=1;exitDx=0;exitDy=0;entryX=0.5;entryY=0;entryDx=0;entryDy=0;" edge="1" parent="2" source="NHyj-sqvV58rn04amOKj-52" target="NHyj-sqvV58rn04amOKj-57">
          <mxGeometry width="50" height="50" relative="1" as="geometry">
            <mxPoint x="430" y="302" as="sourcePoint" />
            <mxPoint x="480" y="252" as="targetPoint" />
          </mxGeometry>
        </mxCell>
        <mxCell id="NHyj-sqvV58rn04amOKj-59" value="admin xác nhận hoàn tiền&amp;nbsp;&lt;div&gt;/ cập nhật thông tin thanh toán&lt;/div&gt;" style="edgeLabel;html=1;align=center;verticalAlign=middle;resizable=0;points=[];" vertex="1" connectable="0" parent="NHyj-sqvV58rn04amOKj-58">
          <mxGeometry x="0.0783" y="2" relative="1" as="geometry">
            <mxPoint as="offset" />
          </mxGeometry>
        </mxCell>
        <mxCell id="NHyj-sqvV58rn04amOKj-60" value="" style="ellipse;shape=startState;fillColor=#000000;strokeColor=#ff0000;" vertex="1" parent="2">
          <mxGeometry x="490" y="302" width="50" height="50" as="geometry" />
        </mxCell>
        <mxCell id="NHyj-sqvV58rn04amOKj-61" value="" style="endArrow=classic;html=1;rounded=0;exitX=1;exitY=0.5;exitDx=0;exitDy=0;entryX=0;entryY=1;entryDx=0;entryDy=0;" edge="1" parent="2" source="NHyj-sqvV58rn04amOKj-57" target="NHyj-sqvV58rn04amOKj-60">
          <mxGeometry width="50" height="50" relative="1" as="geometry">
            <mxPoint x="430" y="282" as="sourcePoint" />
            <mxPoint x="480" y="232" as="targetPoint" />
          </mxGeometry>
        </mxCell>
        <mxCell id="NHyj-sqvV58rn04amOKj-62" value="" style="endArrow=classic;html=1;rounded=0;exitX=0.5;exitY=1;exitDx=0;exitDy=0;entryX=0.859;entryY=0.344;entryDx=0;entryDy=0;entryPerimeter=0;" edge="1" parent="2" source="NHyj-sqvV58rn04amOKj-49" target="NHyj-sqvV58rn04amOKj-60">
          <mxGeometry width="50" height="50" relative="1" as="geometry">
            <mxPoint x="430" y="282" as="sourcePoint" />
            <mxPoint x="480" y="232" as="targetPoint" />
          </mxGeometry>
        </mxCell>
      </root>
    </mxGraphModel>
  </diagram>
</mxfile>
